<?xml version="1.0" encoding="UTF-8"?>
<svg width="547px" height="536px" viewBox="0 0 547 536" version="1.1" xmlns="http://www.w3.org/2000/svg" xmlns:xlink="http://www.w3.org/1999/xlink">
    <!-- Generator: Sketch 52.1 (67048) - http://www.bohemiancoding.com/sketch -->
    <title>3D Logo</title>
    <desc>Created with Sketch.</desc>
    <defs>
        <filter x="-46.4%" y="-40.3%" width="192.9%" height="180.7%" filterUnits="objectBoundingBox" id="filter-1">
            <feGaussianBlur stdDeviation="44.9999988" in="SourceGraphic"></feGaussianBlur>
        </filter>
        <filter x="-75.2%" y="-97.4%" width="250.3%" height="294.9%" filterUnits="objectBoundingBox" id="filter-2">
            <feGaussianBlur stdDeviation="46.3334745" in="SourceGraphic"></feGaussianBlur>
        </filter>
        <path d="M159.804597,5.13065882 L1.7579905,319.486696 C-0.540885205,324.059179 1.30223786,329.629516 5.87472108,331.928392 C8.3473949,333.171561 11.2463009,333.244454 13.7783292,332.127128 L288.256342,211.006241 L176.225772,4.86820094 C173.781945,0.371519827 168.155551,-1.29264708 163.65887,1.15118011 C161.998378,2.05361361 160.653504,3.44217526 159.804597,5.13065882 Z" id="path-3"></path>
        <linearGradient x1="-16.7953303%" y1="40.4369551%" x2="116.39318%" y2="54.1301678%" id="linearGradient-5">
            <stop stop-color="#3BA782" offset="0%"></stop>
            <stop stop-color="#2B8D6C" offset="100%"></stop>
        </linearGradient>
        <path d="M174.029607,4.93101332 L1.96161076,320.811292 C-0.486558521,325.305611 1.17217323,330.933609 5.66649182,333.381778 C8.2204677,334.772994 11.2794253,334.884489 13.9279057,333.682896 L291.456395,207.770621 L190.46017,5.22862664 C188.176368,0.648595972 182.612132,-1.21286517 178.032101,1.07093681 C176.334244,1.91756201 174.937165,3.26493044 174.029607,4.93101332 Z" id="path-6"></path>
        <linearGradient x1="67.7164366%" y1="5.63826142%" x2="47.8358125%" y2="100%" id="linearGradient-8">
            <stop stop-color="#EBEBEB" offset="0%"></stop>
            <stop stop-color="#E8E8E8" offset="100%"></stop>
        </linearGradient>
    </defs>
    <g id="Website" stroke="none" stroke-width="1" fill="none" fill-rule="evenodd">
        <g transform="translate(-446.000000, -5364.000000)" id="6th-Fold">
            <g transform="translate(0.000000, 5118.000000)">
                <g id="3D-Logo" transform="translate(544.000000, 344.000000)">
                    <path d="M174.029607,4.93101332 L1.96161076,320.811292 C-0.486558521,325.305611 1.17217323,330.933609 5.66649182,333.381778 C8.2204677,334.772994 11.2794253,334.884489 13.9279057,333.682896 L291.456395,207.770621 L190.46017,5.22862664 C188.176368,0.648595972 182.612132,-1.21286517 178.032101,1.07093681 C176.334244,1.91756201 174.937165,3.26493044 174.029607,4.93101332 Z" id="Path-2-Copy-2" fill="#F7F7F7" opacity="0.2" filter="url(#filter-1)"></path>
                    <g id="Logo-Monogram/Moss-Green">
                        <g id="Logo" transform="translate(61.200000, 3.055467)">
                            <path d="M161.327134,194.922765 L100.234387,319.052346 C97.9744251,323.644187 99.8647862,329.198671 104.456627,331.458633 C106.944418,332.683047 109.849777,332.729097 112.375122,331.584141 L284.208084,253.677538 L174.231735,190.964917 C169.785914,188.429743 164.126699,189.97863 161.591526,194.424451 C161.498359,194.587834 161.410187,194.754016 161.327134,194.922765 Z" id="Path-2-Copy-3" fill="#37B087" opacity="0.5" filter="url(#filter-2)" transform="translate(191.738101, 261.082384) scale(-1, 1) translate(-191.738101, -261.082384) "></path>
                            <g id="Group-Copy" transform="translate(0.773605, 0.000000)">
                                <mask id="mask-4" fill="white">
                                    <use xlink:href="#path-3"></use>
                                </mask>
                                <use id="Path-2-Copy" fill="#37B087" transform="translate(144.506368, 166.476043) scale(-1, 1) translate(-144.506368, -166.476043) " xlink:href="#path-3"></use>
                                <polygon id="Path-9" fill="#37B087" mask="url(#mask-4)" points="212.526395 261.521224 307.026395 351.370852 91.3835829 258.631938"></polygon>
                                <polygon id="Path-11" fill="url(#linearGradient-5)" mask="url(#mask-4)" points="212.474182 261.525735 232.008589 196.950742 300.603129 345.681828"></polygon>
                                <polygon id="Path-10" fill="#43C397" mask="url(#mask-4)" points="212.526395 261.525805 232.140538 196.89205 107.846654 259.060558"></polygon>
                                <g id="Group-2" opacity="0.400000006" mask="url(#mask-4)" fill="#FFFFFF">
                                    <g transform="translate(128.700000, 195.010667)">
                                        <path d="M130.879083,132.720992 L135.233688,135.397443 C135.974897,135.87538 136.901409,135.206268 136.716107,134.250392 L135.604293,129.184253 C135.511642,128.801903 135.604293,128.419553 135.882246,128.132791 L139.680945,124.69164 C140.329503,124.118114 139.958898,122.971064 139.125037,122.875477 L134.121874,122.397539 C133.751269,122.397539 133.473316,122.110776 133.288013,121.728426 L131.342339,116.94905 C130.971734,116.088762 129.85992,116.088762 129.489315,116.94905 L127.54364,121.728426 C127.358338,122.110776 127.080384,122.301951 126.70978,122.397539 L121.706616,122.875477 C120.780104,122.971064 120.502151,124.118114 121.150709,124.69164 L124.949407,128.132791 C125.227361,128.419553 125.320012,128.801903 125.227361,129.184253 L124.115547,134.250392 C123.930244,135.11068 124.856756,135.87538 125.597966,135.397443 L129.952571,132.720992 C130.137873,132.529817 130.508478,132.529817 130.879083,132.720992 Z" id="Path" opacity="0.100000001"></path>
                                        <path d="M94.7341512,75.6741705 L98.0001051,77.6815086 C98.5560122,78.0399618 99.250896,77.5381273 99.1119193,76.8212209 L98.2780587,73.0216166 C98.2085703,72.734854 98.2780587,72.4480915 98.4865238,72.2330195 L101.335547,69.6521563 C101.821966,69.2220124 101.544013,68.3617246 100.918617,68.290034 L97.1662446,67.9315808 C96.888291,67.9315808 96.6798259,67.7165088 96.5408491,67.4297463 L95.0815931,63.845214 C94.8036396,63.1999981 93.969779,63.1999981 93.6918254,63.845214 L92.2325694,67.4297463 C92.0935926,67.7165088 91.8851275,67.8598901 91.607174,67.9315808 L87.8548013,68.290034 C87.1599175,68.3617246 86.9514523,69.2220124 87.437871,69.6521563 L90.2868947,72.2330195 C90.4953598,72.4480915 90.5648482,72.734854 90.4953598,73.0216166 L89.6614993,76.8212209 C89.5225225,77.4664367 90.2174063,78.0399618 90.7733134,77.6815086 L94.0392673,75.6741705 C94.1782441,75.5307892 94.4561976,75.5307892 94.7341512,75.6741705 Z" id="Path-Copy-5" opacity="0.100000001"></path>
                                        <path d="M80.3236628,51.6093833 L83.5896168,53.6167214 C84.1455238,53.9751746 84.8404077,53.4733401 84.7014309,52.7564336 L83.8675703,48.9568294 C83.7980819,48.6700668 83.8675703,48.3833042 84.0760355,48.1682323 L86.9250591,45.587369 C87.4114778,45.1572252 87.1335243,44.2969374 86.5081288,44.2252468 L82.7557562,43.8667935 C82.4778027,43.8667935 82.2693375,43.6517216 82.1303607,43.364959 L80.6711047,39.7804267 C80.3931512,39.1352109 79.5592906,39.1352109 79.2813371,39.7804267 L77.822081,43.364959 C77.6831043,43.6517216 77.4746391,43.7951029 77.1966856,43.8667935 L73.444313,44.2252468 C72.7494291,44.2969374 72.540964,45.1572252 73.0273827,45.587369 L75.8764063,48.1682323 C76.0848715,48.3833042 76.1543599,48.6700668 76.0848715,48.9568294 L75.2510109,52.7564336 C75.1120341,53.4016494 75.806918,53.9751746 76.362825,53.6167214 L79.628779,51.6093833 C79.7677557,51.466002 80.0457093,51.466002 80.3236628,51.6093833 Z" id="Path-Copy-10" opacity="0.200000003"></path>
                                        <path d="M63.630137,70.1525451 L67.9847423,72.8289959 C68.7259517,73.3069335 69.6524635,72.6378208 69.4671612,71.6819455 L68.355347,66.6158066 C68.2626959,66.2334565 68.355347,65.8511064 68.6333006,65.5643438 L72.4319988,62.1231928 C73.080557,61.5496676 72.7099523,60.4026173 71.8760917,60.3070297 L66.8729282,59.8290921 C66.5023235,59.8290921 66.22437,59.5423295 66.0390676,59.1599794 L64.0933929,54.380603 C63.7227882,53.5203153 62.6109741,53.5203153 62.2403694,54.380603 L60.2946947,59.1599794 C60.1093923,59.5423295 59.8314388,59.7335046 59.4608341,59.8290921 L54.4576706,60.3070297 C53.5311588,60.4026173 53.2532053,61.5496676 53.9017635,62.1231928 L57.7004617,65.5643438 C57.9784153,65.8511064 58.0710665,66.2334565 57.9784153,66.6158066 L56.8666012,71.6819455 C56.6812988,72.5422333 57.6078106,73.3069335 58.34902,72.8289959 L62.7036253,70.1525451 C62.8889276,69.96137 63.2595323,69.96137 63.630137,70.1525451 Z" id="Path-Copy-11" opacity="0.200000003"></path>
                                        <path d="M51.5026861,99.7389578 L54.7686401,101.746296 C55.3245471,102.104749 56.0194309,101.602915 55.8804542,100.886008 L55.0465936,97.0864039 C54.9771052,96.7996413 55.0465936,96.5128787 55.2550587,96.2978068 L58.1040824,93.7169435 C58.5905011,93.2867996 58.3125476,92.4265119 57.6871521,92.3548212 L53.9347795,91.996368 C53.6568259,91.996368 53.4483608,91.7812961 53.309384,91.4945335 L51.850128,87.9100012 C51.5721745,87.2647854 50.7383139,87.2647854 50.4603603,87.9100012 L49.0011043,91.4945335 C48.8621276,91.7812961 48.6536624,91.9246774 48.3757089,91.996368 L44.6233362,92.3548212 C43.9284524,92.4265119 43.7199873,93.2867996 44.2064059,93.7169435 L47.0554296,96.2978068 C47.2638948,96.5128787 47.3333831,96.7996413 47.2638948,97.0864039 L46.4300342,100.886008 C46.2910574,101.531224 46.9859412,102.104749 47.5418483,101.746296 L50.8078023,99.7389578 C50.946779,99.5955765 51.2247326,99.5955765 51.5026861,99.7389578 Z" id="Path-Copy-12" opacity="0.200000003"></path>
                                        <path d="M70.7166706,27.5445961 L73.9826245,29.5519341 C74.5385316,29.9103874 75.2334154,29.4085529 75.0944387,28.6916464 L74.2605781,24.8920422 C74.1910897,24.6052796 74.2605781,24.318517 74.4690432,24.1034451 L77.3180669,21.5225818 C77.8044856,21.0924379 77.526532,20.2321502 76.9011366,20.1604595 L73.1487639,19.8020063 C72.8708104,19.8020063 72.6623453,19.5869344 72.5233685,19.3001718 L71.0641125,15.7156395 C70.7861589,15.0704237 69.9522984,15.0704237 69.6743448,15.7156395 L68.2150888,19.3001718 C68.076112,19.5869344 67.8676469,19.7303157 67.5896934,19.8020063 L63.8373207,20.1604595 C63.1424369,20.2321502 62.9339717,21.0924379 63.4203904,21.5225818 L66.2694141,24.1034451 C66.4778792,24.318517 66.5473676,24.6052796 66.4778792,24.8920422 L65.6440187,28.6916464 C65.5050419,29.3368622 66.1999257,29.9103874 66.7558328,29.5519341 L70.0217867,27.5445961 C70.1607635,27.4012148 70.438717,27.4012148 70.7166706,27.5445961 Z" id="Path-Copy-13" opacity="0.200000003"></path>
                                        <path d="M53.7857235,47.5050938 L55.9630261,48.8433192 C56.3336308,49.082288 56.7968867,48.7477317 56.7042355,48.269794 L56.1483285,45.7367246 C56.1020029,45.5455495 56.1483285,45.3543744 56.2873053,45.2109931 L58.1866544,43.4904176 C58.5109335,43.2036551 58.3256311,42.6301299 57.9087008,42.5823361 L55.4071191,42.3433673 C55.2218167,42.3433673 55.08284,42.199986 54.9901888,42.008811 L54.0173514,39.6191228 C53.8320491,39.1889789 53.276142,39.1889789 53.0908397,39.6191228 L52.1180023,42.008811 C52.0253511,42.199986 51.8863744,42.2955736 51.701072,42.3433673 L49.1994902,42.5823361 C48.7362344,42.6301299 48.5972576,43.2036551 48.9215367,43.4904176 L50.8208858,45.2109931 C50.9598626,45.3543744 51.0061882,45.5455495 50.9598626,45.7367246 L50.4039555,48.269794 C50.3113044,48.6999379 50.7745602,49.082288 51.145165,48.8433192 L53.3224676,47.5050938 C53.4151188,47.4095063 53.6004211,47.4095063 53.7857235,47.5050938 Z" id="Path-Copy-15" opacity="0.200000003"></path>
                                        <path d="M34.571739,52.3180513 L36.7490416,53.6562767 C37.1196464,53.8952455 37.5829022,53.5606891 37.4902511,53.0827515 L36.934344,50.549682 C36.8880184,50.3585069 36.934344,50.1673319 37.0733208,50.0239506 L38.9726699,48.3033751 C39.296949,48.0166125 39.1116467,47.4430873 38.6947164,47.3952936 L36.1931346,47.1563248 C36.0078322,47.1563248 35.8688555,47.0129435 35.7762043,46.8217684 L34.8033669,44.4320802 C34.6180646,44.0019363 34.0621575,44.0019363 33.8768552,44.4320802 L32.9040178,46.8217684 C32.8113666,47.0129435 32.6723899,47.108531 32.4870875,47.1563248 L29.9855058,47.3952936 C29.5222499,47.4430873 29.3832731,48.0166125 29.7075522,48.3033751 L31.6069014,50.0239506 C31.7458781,50.1673319 31.7922037,50.3585069 31.7458781,50.549682 L31.1899711,53.0827515 C31.0973199,53.5128954 31.5605758,53.8952455 31.9311805,53.6562767 L34.1084831,52.3180513 C34.2011343,52.2224637 34.3864366,52.2224637 34.571739,52.3180513 Z" id="Path-Copy-17" opacity="0.200000003"></path>
                                        <path d="M37.0921977,75.6741705 L40.3581517,77.6815086 C40.9140587,78.0399618 41.6089426,77.5381273 41.4699658,76.8212209 L40.6361052,73.0216166 C40.5666168,72.734854 40.6361052,72.4480915 40.8445704,72.2330195 L43.693594,69.6521563 C44.1800127,69.2220124 43.9020592,68.3617246 43.2766637,68.290034 L39.5242911,67.9315808 C39.2463376,67.9315808 39.0378724,67.7165088 38.8988957,67.4297463 L37.4396396,63.845214 C37.1616861,63.1999981 36.3278255,63.1999981 36.049872,63.845214 L34.590616,67.4297463 C34.4516392,67.7165088 34.243174,67.8598901 33.9652205,67.9315808 L30.2128479,68.290034 C29.517964,68.3617246 29.3094989,69.2220124 29.7959176,69.6521563 L32.6449412,72.2330195 C32.8534064,72.4480915 32.9228948,72.734854 32.8534064,73.0216166 L32.0195458,76.8212209 C31.880569,77.4664367 32.5754529,78.0399618 33.1313599,77.6815086 L36.3973139,75.6741705 C36.5362907,75.5307892 36.8142442,75.5307892 37.0921977,75.6741705 Z" id="Path-Copy-14" opacity="0.200000003"></path>
                                        <path d="M75.5201667,90.1130429 L78.7861207,92.1203809 C79.3420277,92.4788342 80.0369115,91.9769997 79.8979348,91.2600932 L79.0640742,87.460489 C78.9945858,87.1737264 79.0640742,86.8869638 79.2725393,86.6718919 L82.121563,84.0910286 C82.6079817,83.6608847 82.3300282,82.800597 81.7046327,82.7289063 L77.9522601,82.3704531 C77.6743065,82.3704531 77.4658414,82.1553812 77.3268646,81.8686186 L75.8676086,78.2840863 C75.5896551,77.6388705 74.7557945,77.6388705 74.477841,78.2840863 L73.0185849,81.8686186 C72.8796082,82.1553812 72.671143,82.2987625 72.3931895,82.3704531 L68.6408168,82.7289063 C67.945933,82.800597 67.7374679,83.6608847 68.2238865,84.0910286 L71.0729102,86.6718919 C71.2813754,86.8869638 71.3508637,87.1737264 71.2813754,87.460489 L70.4475148,91.2600932 C70.308538,91.905309 71.0034218,92.4788342 71.5593289,92.1203809 L74.8252829,90.1130429 C74.9642596,89.9696616 75.2422132,89.9696616 75.5201667,90.1130429 Z" id="Path-Copy-8" opacity="0.200000003"></path>
                                        <path d="M159.700059,127.908034 L164.054665,130.584485 C164.795874,131.062423 165.722386,130.39331 165.537084,129.437435 L164.425269,124.371296 C164.332618,123.988946 164.425269,123.606596 164.703223,123.319833 L168.501921,119.878682 C169.150479,119.305157 168.779875,118.158107 167.946014,118.062519 L162.942851,117.584581 C162.572246,117.584581 162.294292,117.297819 162.10899,116.915469 L160.163315,112.136092 C159.792711,111.275805 158.680897,111.275805 158.310292,112.136092 L156.364617,116.915469 C156.179315,117.297819 155.901361,117.488994 155.530757,117.584581 L150.527593,118.062519 C149.601081,118.158107 149.323128,119.305157 149.971686,119.878682 L153.770384,123.319833 C154.048338,123.606596 154.140989,123.988946 154.048338,124.371296 L152.936524,129.437435 C152.751221,130.297723 153.677733,131.062423 154.418942,130.584485 L158.773548,127.908034 C158.95885,127.716859 159.329455,127.716859 159.700059,127.908034 Z" id="Path-Copy" opacity="0.200000003"></path>
                                        <path d="M10.7916797,65.3395877 L15.146285,68.0160384 C15.8874944,68.4939761 16.8140062,67.8248634 16.6287038,66.8689881 L15.5168897,61.8028491 C15.4242385,61.420499 15.5168897,61.0381489 15.7948432,60.7513863 L19.5935415,57.3102353 C20.2420997,56.7367102 19.871495,55.5896598 19.0376344,55.4940723 L14.0344709,55.0161347 C13.6638662,55.0161347 13.3859127,54.7293721 13.2006103,54.347022 L11.2549356,49.5676456 C10.8843309,48.7073578 9.77251677,48.7073578 9.40191206,49.5676456 L7.45623735,54.347022 C7.270935,54.7293721 6.99298147,54.9205471 6.62237677,55.0161347 L1.61921324,55.4940723 C0.692701471,55.5896598 0.414747941,56.7367102 1.06330618,57.3102353 L4.86200441,60.7513863 C5.13995794,61.0381489 5.23260912,61.420499 5.13995794,61.8028491 L4.02814382,66.8689881 C3.84284147,67.7292759 4.76935324,68.4939761 5.51056265,68.0160384 L9.86516794,65.3395877 C10.0504703,65.1484126 10.421075,65.1484126 10.7916797,65.3395877 Z" id="Path-Copy-16" opacity="0.200000003"></path>
                                        <path d="M145.526992,102.425911 L152.0589,106.440587 C153.170714,107.157494 154.560482,106.153825 154.282529,104.720012 L152.614807,97.1208035 C152.475831,96.5472783 152.614807,95.9737532 153.031738,95.5436093 L158.729785,90.3818828 C159.702622,89.521595 159.146715,87.8010195 157.895924,87.6576382 L150.391179,86.9407318 C149.835272,86.9407318 149.418342,86.5105879 149.140388,85.9370627 L146.221876,78.7679982 C145.665969,77.4775665 143.998248,77.4775665 143.442341,78.7679982 L140.523829,85.9370627 C140.245875,86.5105879 139.828945,86.7973505 139.273038,86.9407318 L131.768293,87.6576382 C130.378525,87.8010195 129.961595,89.521595 130.934432,90.3818828 L136.632479,95.5436093 C137.04941,95.9737532 137.188387,96.5472783 137.04941,97.1208035 L135.381689,104.720012 C135.103735,106.010444 136.493503,107.157494 137.605317,106.440587 L144.137225,102.425911 C144.415178,102.139149 144.971085,102.139149 145.526992,102.425911 Z" id="Path-Copy-2" opacity="0.200000003"></path>
                                        <path d="M111.90252,107.238869 L118.434428,111.253545 C119.546242,111.970451 120.936009,110.966782 120.658056,109.532969 L118.990335,101.933761 C118.851358,101.360236 118.990335,100.786711 119.407265,100.356567 L125.105312,95.1948402 C126.07815,94.3345525 125.522243,92.613977 124.271452,92.4705957 L116.766706,91.7536892 C116.210799,91.7536892 115.793869,91.3235454 115.515915,90.7500202 L112.597403,83.5809556 C112.041496,82.290524 110.373775,82.290524 109.817868,83.5809556 L106.899356,90.7500202 C106.621403,91.3235454 106.204472,91.6103079 105.648565,91.7536892 L98.1438199,92.4705957 C96.7540522,92.613977 96.3371219,94.3345525 97.3099593,95.1948402 L103.008007,100.356567 C103.424937,100.786711 103.563914,101.360236 103.424937,101.933761 L101.757216,109.532969 C101.479262,110.823401 102.86903,111.970451 103.980844,111.253545 L110.512752,107.238869 C110.790705,106.952106 111.346613,106.952106 111.90252,107.238869 Z" id="Path-Copy-3" opacity="0.200000003"></path>
                                        <path d="M97.4920312,25.4185921 L104.023939,29.4332683 C105.135753,30.1501748 106.525521,29.1465057 106.247567,27.7126928 L104.579846,20.1134844 C104.440869,19.5399592 104.579846,18.966434 104.996776,18.5362901 L110.694824,13.3745636 C111.667661,12.5142759 111.111754,10.7937004 109.860963,10.6503191 L102.356218,9.93341264 C101.800311,9.93341264 101.383381,9.50326877 101.105427,8.9297436 L98.186915,1.76067902 C97.631008,0.470247391 95.9632868,0.470247391 95.4073797,1.76067902 L92.4888677,8.9297436 C92.2109141,9.50326877 91.7939838,9.79003135 91.2380768,9.93341264 L83.7333315,10.6503191 C82.3435638,10.7937004 81.9266335,12.5142759 82.8994709,13.3745636 L88.5975183,18.5362901 C89.0144486,18.966434 89.1534253,19.5399592 89.0144486,20.1134844 L87.3467274,27.7126928 C87.0687738,29.0031244 88.4585415,30.1501748 89.5703556,29.4332683 L96.1022636,25.4185921 C96.3802171,25.1318296 96.9361241,25.1318296 97.4920312,25.4185921 Z" id="Path-Copy-9" opacity="0.200000003"></path>
                                        <path d="M126.075587,74.9655026 L130.430192,77.6419533 C131.171401,78.119891 132.097913,77.4507783 131.912611,76.494903 L130.800797,71.428764 C130.708145,71.0464139 130.800797,70.6640638 131.07875,70.3773012 L134.877448,66.9361502 C135.526007,66.362625 135.155402,65.2155747 134.321541,65.1199872 L129.318378,64.6420495 C128.947773,64.6420495 128.66982,64.355287 128.484517,63.9729369 L126.538842,59.1935605 C126.168238,58.3332727 125.056424,58.3332727 124.685819,59.1935605 L122.740144,63.9729369 C122.554842,64.355287 122.276888,64.546462 121.906284,64.6420495 L116.90312,65.1199872 C115.976608,65.2155747 115.698655,66.362625 116.347213,66.9361502 L120.145911,70.3773012 C120.423865,70.6640638 120.516516,71.0464139 120.423865,71.428764 L119.312051,76.494903 C119.126748,77.3551907 120.05326,78.119891 120.79447,77.6419533 L125.149075,74.9655026 C125.334377,74.7743275 125.704982,74.7743275 126.075587,74.9655026 Z" id="Path-Copy-4" opacity="0.200000003"></path>
                                        <path d="M106.861602,55.7136728 L111.216207,58.3901235 C111.957417,58.8680612 112.883929,58.1989485 112.698626,57.2430732 L111.586812,52.1769342 C111.494161,51.7945841 111.586812,51.412234 111.864766,51.1254714 L115.663464,47.6843204 C116.312022,47.1107953 115.941417,45.9637449 115.107557,45.8681574 L110.104393,45.3902198 C109.733789,45.3902198 109.455835,45.1034572 109.270533,44.7211071 L107.324858,39.9417307 C106.954253,39.0814429 105.842439,39.0814429 105.471834,39.9417307 L103.52616,44.7211071 C103.340857,45.1034572 103.062904,45.2946322 102.692299,45.3902198 L97.6891357,45.8681574 C96.7626239,45.9637449 96.4846704,47.1107953 97.1332286,47.6843204 L100.931927,51.1254714 C101.20988,51.412234 101.302532,51.7945841 101.20988,52.1769342 L100.098066,57.2430732 C99.9127639,58.103361 100.839276,58.8680612 101.580485,58.3901235 L105.93509,55.7136728 C106.120393,55.5224977 106.490997,55.5224977 106.861602,55.7136728 Z" id="Path-Copy-6" opacity="0.200000003"></path>
                                        <path d="M82.8441215,118.28212 L87.1987268,120.95857 C87.9399362,121.436508 88.866448,120.767395 88.6811456,119.81152 L87.5693315,114.745381 C87.4766803,114.363031 87.5693315,113.980681 87.8472851,113.693918 L91.6459833,110.252767 C92.2945415,109.679242 91.9239368,108.532192 91.0900762,108.436604 L86.0869127,107.958667 C85.716308,107.958667 85.4383545,107.671904 85.2530521,107.289554 L83.3073774,102.510177 C82.9367727,101.64989 81.8249586,101.64989 81.4543539,102.510177 L79.5086792,107.289554 C79.3233768,107.671904 79.0454233,107.863079 78.6748186,107.958667 L73.6716551,108.436604 C72.7451433,108.532192 72.4671898,109.679242 73.115748,110.252767 L76.9144462,113.693918 C77.1923998,113.980681 77.2850509,114.363031 77.1923998,114.745381 L76.0805856,119.81152 C75.8952833,120.671808 76.8217951,121.436508 77.5630045,120.95857 L81.9176098,118.28212 C82.1029121,118.090945 82.4735168,118.090945 82.8441215,118.28212 Z" id="Path-Copy-7" opacity="0.200000003"></path>
                                    </g>
                                </g>
                            </g>
                        </g>
                        <mask id="mask-7" fill="white">
                            <use xlink:href="#path-6"></use>
                        </mask>
                        <use id="Path-2" fill="#F7F7F7" xlink:href="#path-6"></use>
                        <polygon id="Path-3" fill="#FFFFFF" mask="url(#mask-7)" points="182.514282 -11.324529 182.514282 156.924046 1.43013699 337.30309 -16.2 324.51025 155.450314 -25.812258"></polygon>
                        <polygon id="Path-4" fill="#E3E3E3" opacity="0.900000036" mask="url(#mask-7)" points="182.514282 -13.2257472 182.514282 156.964256 319.820548 220.959761"></polygon>
                        <polygon id="Path-8" fill="url(#linearGradient-8)" mask="url(#mask-7)" points="182.514282 157.072345 -7.05305627 341.527517 82.8 324.089262 302.834075 212.891911"></polygon>
                    </g>
                </g>
            </g>
        </g>
    </g>
</svg>
