<?xml version="1.0" encoding="UTF-8"?>
<svg width="18px" height="20px" viewBox="0 0 18 20" version="1.1" xmlns="http://www.w3.org/2000/svg" xmlns:xlink="http://www.w3.org/1999/xlink">
    <!-- Generator: Sketch 53 (72520) - https://sketchapp.com -->
    <title>fb</title>
    <desc>Created with Sketch.</desc>
    <g id="Page-1" stroke="none" stroke-width="1" fill="none" fill-rule="evenodd">
        <g id="Landing" transform="translate(-588.000000, -4409.000000)" fill="#23E5A3">
            <g id="Footer" transform="translate(-5.000000, 4224.000000)">
                <g id="Group-16" transform="translate(593.000000, 185.000000)">
                    <path d="M15.8169935,0.833333333 L1.97712418,0.833333333 C0.884763072,0.833333333 0,1.74490741 0,2.87037037 L0,17.1296296 C0,18.2550926 0.884763072,19.1666667 1.97712418,19.1666667 L9.51095588,19.1666667 L9.51095588,12.0767593 L7.1947549,12.0767593 L7.1947549,9.3012963 L9.51095588,9.3012963 L9.51095588,7.25916667 C9.51095588,4.89212963 10.9157026,3.60166667 12.9659804,3.60166667 C13.6569853,3.59962963 14.3470016,3.6362963 15.0340523,3.70861111 L15.0340523,6.18361111 L13.6223856,6.18361111 C12.5053105,6.18361111 12.2878268,6.7275 12.2878268,7.53009259 L12.2878268,9.29722222 L14.9569444,9.29722222 L14.6099592,12.0726852 L12.2720098,12.0726852 L12.2720098,19.1666667 L15.8169935,19.1666667 C16.9093546,19.1666667 17.7941176,18.2550926 17.7941176,17.1296296 L17.7941176,2.87037037 C17.7941176,1.74490741 16.9093546,0.833333333 15.8169935,0.833333333 Z" id="fb"></path>
                </g>
            </g>
        </g>
    </g>
</svg>