<?xml version="1.0" encoding="UTF-8"?>
<svg width="43px" height="43px" viewBox="0 0 43 43" version="1.1" xmlns="http://www.w3.org/2000/svg" xmlns:xlink="http://www.w3.org/1999/xlink">
    <!-- Generator: Sketch 53 (72520) - https://sketchapp.com -->
    <title>icons8-facebook</title>
    <desc>Created with Sketch.</desc>
    <g id="Page-1" stroke="none" stroke-width="1" fill="none" fill-rule="evenodd">
        <g id="Landing" transform="translate(-259.000000, -1485.000000)" fill="#23E5A3">
            <g id="Areas" transform="translate(0.000000, 1300.000000)">
                <g id="Facebook" transform="translate(235.000000, 185.000000)">
                    <g id="icons8-facebook" transform="translate(24.000000, 0.000000)">
                        <g id="Group" opacity="0.3" transform="translate(2.388889, 2.388889)">
                            <path d="M35.8333333,38.2222222 L2.38888889,38.2222222 C1.07022222,38.2222222 0,37.152 0,35.8333333 L0,2.38888889 C0,1.07022222 1.07022222,0 2.38888889,0 L35.8333333,0 C37.152,0 38.2222222,1.07022222 38.2222222,2.38888889 L38.2222222,35.8333333 C38.2222222,37.152 37.152,38.2222222 35.8333333,38.2222222 Z" id="Path"></path>
                        </g>
                        <path d="M20.5946111,43 L20.5946111,28.7598333 L14.9974444,28.7598333 L14.9974444,22.2501111 L20.5946111,22.2501111 L20.5946111,17.4603889 C20.5946111,11.9086111 23.9892222,8.88188889 28.9437778,8.88188889 C30.6136111,8.87711111 32.2810556,8.96311111 33.9413333,9.13272222 L33.9413333,14.9377222 L30.53,14.9377222 C27.8305556,14.9377222 27.305,16.2133889 27.305,18.0958333 L27.305,22.2405556 L33.755,22.2405556 L32.9165,28.7502778 L27.2667778,28.7502778 L27.2667778,43 L20.5946111,43 Z" id="Path"></path>
                        <path d="M38.2222222,0 L4.77777778,0 C2.14283333,0 0,2.14283333 0,4.77777778 L0,38.2222222 C0,40.8571667 2.14283333,43 4.77777778,43 L38.2222222,43 C40.8571667,43 43,40.8571667 43,38.2222222 L43,4.77777778 C43,2.14283333 40.8571667,0 38.2222222,0 Z M4.77777778,38.2222222 L4.77777778,4.77777778 L38.2222222,4.77777778 L38.2246111,38.2222222 L4.77777778,38.2222222 Z" id="Shape" fill-rule="nonzero"></path>
                        <path d="M38.2222222,0 L4.77777778,0 C2.14283333,0 0,2.14283333 0,4.77777778 L0,38.2222222 C0,40.8571667 2.14283333,43 4.77777778,43 L38.2222222,43 C40.8571667,43 43,40.8571667 43,38.2222222 L43,4.77777778 C43,2.14283333 40.8571667,0 38.2222222,0 Z M4.77777778,38.2222222 L4.77777778,4.77777778 L38.2222222,4.77777778 L38.2246111,38.2222222 L4.77777778,38.2222222 Z" id="Shape-Copy" fill-rule="nonzero"></path>
                    </g>
                </g>
            </g>
        </g>
    </g>
</svg>