<?xml version="1.0" encoding="UTF-8"?>
<svg width="48px" height="48px" viewBox="0 0 48 48" version="1.1" xmlns="http://www.w3.org/2000/svg" xmlns:xlink="http://www.w3.org/1999/xlink">
    <!-- Generator: Sketch 53 (72520) - https://sketchapp.com -->
    <title>icons8-google_logo</title>
    <desc>Created with Sketch.</desc>
    <g id="Page-1" stroke="none" stroke-width="1" fill="none" fill-rule="evenodd">
        <g id="Landing" transform="translate(-1148.000000, -1487.000000)" fill="#23E5A3">
            <g id="Areas" transform="translate(0.000000, 1300.000000)">
                <g id="Google" transform="translate(1139.000000, 187.000000)">
                    <g id="icons8-google_logo" transform="translate(9.000000, 0.000000)">
                        <g id="Group" opacity="0.3" transform="translate(2.400000, 2.400000)">
                            <path d="M43.0152,18.9024 L42.7512,16.8 L21.6,16.8 L21.6,28.8 L27.9384,28.8 C26.22,30.3168 23.9808,31.2 21.6,31.2 C16.3056,31.2 12,26.8944 12,21.6 C12,16.3056 16.3056,12 21.6,12 C23.88,12 26.0352,12.8184 27.828,14.364 L29.5176,15.8184 L37.992,7.344 L36.1344,5.652 C32.1384,2.0064 26.976,0 21.6,0 C9.6912,0 0,9.6912 0,21.6 C0,33.5088 9.6912,43.2 21.6,43.2 C33.5088,43.2 43.2,33.5088 43.2,21.6 C43.2,20.7696 43.1424,19.9104 43.0152,18.9024 Z" id="Path"></path>
                        </g>
                        <path d="M47.796,21.0048 L47.2728,16.8 L36.7296,16.8 L43.8672,9.6624 L40.152,6.276 C35.712,2.2296 29.976,0 24,0 C10.7664,0 0,10.7664 0,24 C0,37.2336 10.7664,48 24,48 C37.2336,48 48,37.2336 48,24 C48,23.064 47.9352,22.1136 47.796,21.0048 Z M24,43.2 C13.3968,43.2 4.8,34.6032 4.8,24 C4.8,13.3968 13.3968,4.8 24,4.8 C28.9824,4.8 33.504,6.7128 36.9168,9.8232 L31.7952,14.9448 C29.6928,13.1352 26.9928,12 24,12 C17.3736,12 12,17.3736 12,24 C12,30.6264 17.3736,36 24,36 C28.9176,36 33.1344,33.0336 34.9872,28.8 L26.4,28.8 L26.4,21.6 L43.0344,21.6 C43.1328,22.3872 43.2,23.1864 43.2,24 C43.2,34.6032 34.6032,43.2 24,43.2 Z M21.6,17.2104 L21.6,21.6 L21.6,28.8 L21.6,30.7896 C18.8064,29.7984 16.8,27.1296 16.8,24 C16.8,20.8704 18.8064,18.2016 21.6,17.2104 Z" id="Shape" fill-rule="nonzero"></path>
                    </g>
                </g>
            </g>
        </g>
    </g>
</svg>