<?xml version="1.0" encoding="UTF-8"?>
<svg width="43px" height="43px" viewBox="0 0 43 43" version="1.1" xmlns="http://www.w3.org/2000/svg" xmlns:xlink="http://www.w3.org/1999/xlink">
    <!-- Generator: Sketch 53 (72520) - https://sketchapp.com -->
    <title>icons8-twitter</title>
    <desc>Created with Sketch.</desc>
    <g id="Page-1" stroke="none" stroke-width="1" fill="none" fill-rule="evenodd">
        <g id="Landing" transform="translate(-412.000000, -1485.000000)" fill="#23E5A3">
            <g id="Areas" transform="translate(0.000000, 1300.000000)">
                <g id="Twitter" transform="translate(393.000000, 185.000000)">
                    <g id="icons8-twitter" transform="translate(19.000000, 0.000000)">
                        <g id="Group" opacity="0.3" transform="translate(2.388889, 2.388889)">
                            <path d="M35.8333333,38.2222222 L2.38888889,38.2222222 C1.07022222,38.2222222 0,37.152 0,35.8333333 L0,2.38888889 C0,1.07022222 1.07022222,0 2.38888889,0 L35.8333333,0 C37.152,0 38.2222222,1.07022222 38.2222222,2.38888889 L38.2222222,35.8333333 C38.2222222,37.152 37.152,38.2222222 35.8333333,38.2222222 Z" id="Path"></path>
                        </g>
                        <path d="M33.5638889,15.5612222 C33.5638889,15.7666667 33.5638889,15.9697222 33.5638889,16.3806111 C33.5638889,24.1612222 27.6251111,33.1721111 16.7723889,33.1721111 C13.4972222,33.1721111 10.4251111,32.1472778 7.76388889,30.5108889 C8.17238889,30.5108889 8.78872222,30.5108889 9.19722222,30.5108889 C11.8584444,30.5108889 14.5220556,29.4860556 16.5693333,28.0527222 C13.9081111,28.0527222 11.8608333,26.2108889 11.0414444,23.9581667 C11.4499444,23.9581667 11.8608333,24.1636111 12.0662778,24.1636111 C12.6802222,24.1636111 13.0911111,24.1636111 13.7050556,23.9581667 C11.0438333,23.3442222 8.99655556,21.0915 8.99655556,18.2248333 C9.81594444,18.6333333 10.6353333,18.8387778 11.6577778,19.0442222 C10.019,17.6108889 8.99655556,15.9721111 8.99655556,13.9248333 C8.99655556,12.9 9.202,11.8775556 9.81594444,11.0581667 C12.6826111,14.5387778 16.9826111,16.9969444 21.8965556,17.2 C21.8965556,16.7915 21.6911111,16.3806111 21.6911111,15.7666667 C21.6911111,12.4915 24.3523333,9.82788889 27.6298889,9.82788889 C29.2686667,9.82788889 30.9050556,10.4418333 31.9298889,11.6697222 C33.3632222,11.4642778 34.5911111,10.8503333 35.6159444,10.2363889 C35.2074444,11.6697222 34.1826111,12.6945556 32.9547222,13.5115556 C34.1826111,13.3061111 35.2074444,13.1030556 36.4353333,12.4867222 C35.6111667,13.7193889 34.5887222,14.7418333 33.5638889,15.5612222 Z" id="Path"></path>
                        <path d="M38.2222222,0 L4.77777778,0 C2.14283333,0 0,2.14283333 0,4.77777778 L0,38.2222222 C0,40.8571667 2.14283333,43 4.77777778,43 L38.2222222,43 C40.8571667,43 43,40.8571667 43,38.2222222 L43,4.77777778 C43,2.14283333 40.8571667,0 38.2222222,0 Z M4.77777778,38.2222222 L4.77777778,4.77777778 L38.2222222,4.77777778 L38.2246111,38.2222222 L4.77777778,38.2222222 Z" id="Shape" fill-rule="nonzero"></path>
                    </g>
                </g>
            </g>
        </g>
    </g>
</svg>