<?xml version="1.0" encoding="UTF-8"?>
<svg width="43px" height="48px" viewBox="0 0 43 48" version="1.1" xmlns="http://www.w3.org/2000/svg" xmlns:xlink="http://www.w3.org/1999/xlink">
    <!-- Generator: Sketch 53 (72520) - https://sketchapp.com -->
    <title>icons8-youtube</title>
    <desc>Created with Sketch.</desc>
    <g id="Page-1" stroke="none" stroke-width="1" fill="none" fill-rule="evenodd">
        <g id="Landing" transform="translate(-872.000000, -1487.000000)">
            <g id="Areas" transform="translate(0.000000, 1300.000000)">
                <g id="Youtube" transform="translate(854.000000, 187.000000)">
                    <g id="icons8-youtube" transform="translate(18.000000, 0.000000)">
                        <g id="Group" transform="translate(4.777778, 0.000000)" fill="#23E5A3">
                            <path d="M12.7184444,18.5664 C12.0949444,18.144 11.653,17.4888 11.3902222,16.5984 C11.1274444,15.708 10.9960556,14.5248 10.9960556,13.0488 L10.9960556,11.0352 C10.9960556,9.5424 11.1465556,8.3448 11.4451667,7.44 C11.7461667,6.5352 12.2143889,5.8752 12.8522222,5.4624 C13.4900556,5.0472 14.3261667,4.8408 15.3629444,4.8408 C16.383,4.8408 17.2,5.052 17.8163333,5.4744 C18.4326667,5.8968 18.8817778,6.5568 19.1660556,7.452 C19.4503333,8.3496 19.5936667,9.5448 19.5936667,11.0352 L19.5936667,13.0488 C19.5936667,14.5272 19.4551111,15.7128 19.178,16.6104 C18.9008889,17.508 18.4493889,18.1632 17.8282778,18.5784 C17.2071667,18.9936 16.3615,19.2 15.2960556,19.2 C14.2019444,19.2 13.3419444,18.9888 12.7184444,18.5664 Z M16.2086111,16.3968 C16.3806111,15.9456 16.4666111,15.2064 16.4666111,14.1816 L16.4666111,9.8616 C16.4666111,8.8656 16.3806111,8.1384 16.2086111,7.68 C16.0366111,7.2192 15.7308333,6.9912 15.2960556,6.9912 C14.8756111,6.9912 14.5793889,7.2216 14.4073889,7.68 C14.2353889,8.1408 14.1493889,8.868 14.1493889,9.8616 L14.1493889,14.1816 C14.1493889,15.2064 14.2306111,15.9456 14.3978333,16.3968 C14.5626667,16.848 14.8636667,17.076 15.2984444,17.076 C15.7308333,17.0736 16.0366111,16.848 16.2086111,16.3968 Z" id="Shape" fill-rule="nonzero"></path>
                            <path d="M5.15522222,12.8232 L1.62205556,0 L4.70611111,0 L5.94355556,5.8128 C6.25888889,7.2432 6.49061111,8.4648 6.64111111,9.4752 L6.73188889,9.4752 C6.837,8.7528 7.06872222,7.5384 7.42944444,5.8344 L8.71227778,0 L11.7963333,0 L8.21777778,12.8232 L8.21777778,18.9744 L5.15522222,18.9744 L5.15522222,12.8232 Z" id="Path"></path>
                            <path d="M29.6246111,5.112 L29.6246111,18.9744 L27.1927222,18.9744 L26.9227778,17.2776 L26.8558889,17.2776 C26.1965556,18.5592 25.2051667,19.2 23.8865,19.2 C22.9715556,19.2 22.2955,18.8976 21.8607222,18.2952 C21.4259444,17.6928 21.2085556,16.7496 21.2085556,15.468 L21.2085556,5.112 L24.3141111,5.112 L24.3141111,15.288 C24.3141111,15.9072 24.381,16.3464 24.5171667,16.6104 C24.6533333,16.8744 24.8778889,17.0064 25.1932222,17.0064 C25.4631667,17.0064 25.7211667,16.9248 25.9696111,16.7568 C26.2180556,16.5912 26.402,16.38 26.5214444,16.1232 L26.5214444,5.112 L29.6246111,5.112 Z" id="Path"></path>
                        </g>
                        <g id="Group" transform="translate(0.000000, 21.600000)">
                            <path d="M38.2222222,0 L4.77777778,0 C2.15,0 0,2.16 0,4.8 L0,21.6 C0,24.24 2.15,26.4 4.77777778,26.4 L38.2222222,26.4 C40.85,26.4 43,24.24 43,21.6 L43,4.8 C43,2.16 40.85,0 38.2222222,0 Z M11.1059444,21.408 L8.54266667,21.408 L8.54266667,7.512 L5.93877778,7.512 L5.93877778,5.3928 L13.7098333,5.3928 L13.7098333,7.512 L11.1059444,7.512 L11.1059444,21.408 L11.1059444,21.408 Z M20.0356111,21.408 L17.9835556,21.408 L17.7566111,19.9752 L17.6992778,19.9752 C17.1402778,21.06 16.3041667,21.6 15.1885556,21.6 C14.4145556,21.6 13.846,21.3456 13.4781111,20.8368 C13.1102222,20.328 12.9262778,19.5312 12.9262778,18.4512 L12.9262778,9.708 L15.5516667,9.708 L15.5516667,18.3 C15.5516667,18.8208 15.609,19.1952 15.7236667,19.416 C15.8383333,19.6392 16.0270556,19.7496 16.2946111,19.7496 C16.5215556,19.7496 16.7413333,19.68 16.9491667,19.5384 C17.1593889,19.3992 17.3122778,19.2192 17.415,19.0032 L17.415,9.7056 L20.038,9.7056 L20.038,21.408 L20.0356111,21.408 Z M28.9509444,16.5024 C28.9509444,18.2472 28.7407222,19.5288 28.3226667,20.3496 C27.9046111,21.1704 27.2524444,21.5808 26.3661667,21.5808 C25.8716667,21.5808 25.4225556,21.4656 25.0164444,21.2376 C24.6103333,21.0096 24.3069444,20.6976 24.1038889,20.3016 L24.0465556,20.3016 L23.7813889,21.408 L21.6146667,21.408 L21.6146667,4.8 L24.1421111,4.8 L24.1421111,10.9656 L24.1612222,10.9656 C24.3881667,10.5192 24.7130556,10.1616 25.1311111,9.888 C25.5491667,9.6144 25.9982778,9.4776 26.4808333,9.4776 C27.1019444,9.4776 27.5892778,9.6432 27.9428333,9.9744 C28.2963889,10.3056 28.5543889,10.8408 28.7120556,11.5776 C28.8697222,12.3168 28.9485556,13.3416 28.9485556,14.652 L28.9485556,16.5024 L28.9509444,16.5024 Z M37.0612222,16.4352 L32.6728333,16.4352 L32.6728333,17.028 C32.6728333,17.7792 32.6943333,18.3432 32.7397222,18.7176 C32.7851111,19.092 32.8758889,19.368 33.0144444,19.5384 C33.153,19.7112 33.368,19.7952 33.6594444,19.7952 C34.0512222,19.7952 34.3211667,19.6416 34.4668889,19.3368 C34.6126111,19.032 34.6914444,18.5232 34.7033889,17.8104 L36.9656667,17.9448 C36.9776111,18.0456 36.9847778,18.1872 36.9847778,18.3648 C36.9847778,19.4472 36.6909444,20.256 36.1008889,20.7888 C35.5108333,21.324 34.6795,21.5904 33.6021111,21.5904 C32.3097222,21.5904 31.4043333,21.1824 30.8835556,20.3688 C30.3627778,19.5552 30.1047778,18.2952 30.1047778,16.5888 L30.1047778,14.544 C30.1047778,12.7872 30.3747222,11.5056 30.9122222,10.6968 C31.4497222,9.888 32.3718333,9.4848 33.6761667,9.4848 C34.5743889,9.4848 35.2647778,9.6504 35.7473333,9.9816 C36.2275,10.3128 36.5667222,10.8288 36.765,11.5272 C36.9608889,12.228 37.0588333,13.1952 37.0588333,14.4288 L37.0588333,16.4352 L37.0612222,16.4352 Z" id="Shape" fill="#23E5A3" fill-rule="nonzero" opacity="0.300000012"></path>
                            <polygon id="Path-Copy-11" fill="#23E5A3" fill-rule="nonzero" points="11.1059444 21.408 8.54266667 21.408 8.54266667 7.512 5.93877778 7.512 5.93877778 5.3928 13.7098333 5.3928 13.7098333 7.512 11.1059444 7.512 11.1059444 21.408"></polygon>
                            <path d="M20.0356111,21.408 L17.9835556,21.408 L17.7566111,19.9752 L17.6992778,19.9752 C17.1402778,21.06 16.3041667,21.6 15.1885556,21.6 C14.4145556,21.6 13.846,21.3456 13.4781111,20.8368 C13.1102222,20.328 12.9262778,19.5312 12.9262778,18.4512 L12.9262778,9.708 L15.5516667,9.708 L15.5516667,18.3 C15.5516667,18.8208 15.609,19.1952 15.7236667,19.416 C15.8383333,19.6392 16.0270556,19.7496 16.2946111,19.7496 C16.5215556,19.7496 16.7413333,19.68 16.9491667,19.5384 C17.1593889,19.3992 17.3122778,19.2192 17.415,19.0032 L17.415,9.7056 L20.038,9.7056 L20.038,21.408 L20.0356111,21.408 Z" id="Path-Copy-10" fill="#23E5A3" fill-rule="nonzero"></path>
                            <path d="M28.9509444,16.5024 C28.9509444,18.2472 28.7407222,19.5288 28.3226667,20.3496 C27.9046111,21.1704 27.2524444,21.5808 26.3661667,21.5808 C25.8716667,21.5808 25.4225556,21.4656 25.0164444,21.2376 C24.6103333,21.0096 24.3069444,20.6976 24.1038889,20.3016 L24.0465556,20.3016 L23.7813889,21.408 L21.6146667,21.408 L21.6146667,4.8 L24.1421111,4.8 L24.1421111,10.9656 L24.1612222,10.9656 C24.3881667,10.5192 24.7130556,10.1616 25.1311111,9.888 C25.5491667,9.6144 25.9982778,9.4776 26.4808333,9.4776 C27.1019444,9.4776 27.5892778,9.6432 27.9428333,9.9744 C28.2963889,10.3056 28.5543889,10.8408 28.7120556,11.5776 C28.8697222,12.3168 28.9485556,13.3416 28.9485556,14.652 L28.9485556,16.5024 L28.9509444,16.5024 Z" id="Path-Copy-9" fill="#23E5A3" fill-rule="nonzero"></path>
                            <path d="M37.0612222,16.4352 L32.6728333,16.4352 L32.6728333,17.028 C32.6728333,17.7792 32.6943333,18.3432 32.7397222,18.7176 C32.7851111,19.092 32.8758889,19.368 33.0144444,19.5384 C33.153,19.7112 33.368,19.7952 33.6594444,19.7952 C34.0512222,19.7952 34.3211667,19.6416 34.4668889,19.3368 C34.6126111,19.032 34.6914444,18.5232 34.7033889,17.8104 L36.9656667,17.9448 C36.9776111,18.0456 36.9847778,18.1872 36.9847778,18.3648 C36.9847778,19.4472 36.6909444,20.256 36.1008889,20.7888 C35.5108333,21.324 34.6795,21.5904 33.6021111,21.5904 C32.3097222,21.5904 31.4043333,21.1824 30.8835556,20.3688 C30.3627778,19.5552 30.1047778,18.2952 30.1047778,16.5888 L30.1047778,14.544 C30.1047778,12.7872 30.3747222,11.5056 30.9122222,10.6968 C31.4497222,9.888 32.3718333,9.4848 33.6761667,9.4848 C34.5743889,9.4848 35.2647778,9.6504 35.7473333,9.9816 C36.2275,10.3128 36.5667222,10.8288 36.765,11.5272 C36.9608889,12.228 37.0588333,13.1952 37.0588333,14.4288 L37.0588333,16.4352 L37.0612222,16.4352 Z" id="Path-Copy-8" fill="#23E5A3" fill-rule="nonzero"></path>
                            <path d="M34.2399444,11.5008 C34.1061667,11.3424 33.9007222,11.2632 33.6212222,11.2632 C33.3417222,11.2632 33.1362778,11.3472 33.0025,11.5104 C32.8687222,11.676 32.7803333,11.9472 32.7373333,12.3216 C32.6919444,12.696 32.6704444,13.2672 32.6704444,14.0304 L32.6704444,14.8704 L34.5887222,14.8704 L34.5887222,14.0304 C34.5887222,13.2792 34.5624444,12.7104 34.5122778,12.3216 C34.4645,11.9328 34.3737222,11.6592 34.2399444,11.5008 Z" id="Path-Copy-13" fill="#124C38"></path>
                            <path d="M25.9218333,11.664 C25.7761111,11.4552 25.5706667,11.3496 25.3031111,11.3496 C25.0498889,11.3496 24.8157778,11.4504 24.6007778,11.6544 C24.3857778,11.8584 24.2328889,12.12 24.1445,12.4368 L24.1445,19.08 C24.2591667,19.284 24.4072778,19.4352 24.5912222,19.5384 C24.7751667,19.6392 24.9734444,19.692 25.1908333,19.692 C25.4703333,19.692 25.6901111,19.5912 25.8549444,19.3872 C26.0197778,19.1832 26.1368333,18.84 26.2061111,18.3552 C26.2753889,17.8728 26.3112222,17.2032 26.3112222,16.3512 L26.3112222,14.844 C26.3112222,13.9272 26.2825556,13.2216 26.2252222,12.7248 C26.1678889,12.228 26.0651667,11.8728 25.9218333,11.664 Z" id="Path-Copy-12" fill="#124C38"></path>
                        </g>
                    </g>
                </g>
            </g>
        </g>
    </g>
</svg>