<?xml version="1.0" encoding="UTF-8"?>
<svg width="43px" height="43px" viewBox="0 0 43 43" version="1.1" xmlns="http://www.w3.org/2000/svg" xmlns:xlink="http://www.w3.org/1999/xlink">
    <!-- Generator: Sketch 53 (72520) - https://sketchapp.com -->
    <title>icons8-linkedin</title>
    <desc>Created with Sketch.</desc>
    <g id="Page-1" stroke="none" stroke-width="1" fill="none" fill-rule="evenodd">
        <g id="Landing" transform="translate(-559.000000, -1485.000000)" fill="#23E5A3">
            <g id="Areas" transform="translate(0.000000, 1300.000000)">
                <g id="Linkedin" transform="translate(540.000000, 185.000000)">
                    <g id="icons8-linkedin" transform="translate(19.000000, 0.000000)">
                        <g id="Group" opacity="0.3" transform="translate(2.388889, 2.388889)">
                            <path d="M35.8333333,38.2222222 L2.38888889,38.2222222 C1.07022222,38.2222222 0,37.152 0,35.8333333 L0,2.38888889 C0,1.07022222 1.07022222,0 2.38888889,0 L35.8333333,0 C37.152,0 38.2222222,1.07022222 38.2222222,2.38888889 L38.2222222,35.8333333 C38.2222222,37.152 37.152,38.2222222 35.8333333,38.2222222 Z" id="Path"></path>
                        </g>
                        <path d="M14.3333333,33.4444444 L8.30616667,33.4444444 L8.30616667,16.7222222 L14.3333333,16.7222222 L14.3333333,33.4444444 Z M11.2134444,13.6572778 C9.37161111,13.6572778 8.14133333,12.4293889 8.14133333,10.7906111 C8.14133333,9.15183333 9.36922222,7.92394444 11.4165,7.92394444 C13.2583333,7.92394444 14.4886111,9.15183333 14.4886111,10.7906111 C14.4886111,12.4293889 13.2607222,13.6572778 11.2134444,13.6572778 Z M35.8333333,33.4444444 L29.9996667,33.4444444 L29.9996667,24.3045556 C29.9996667,21.7771111 28.4445,21.1942222 27.8616111,21.1942222 C27.2787222,21.1942222 25.3341667,21.5836111 25.3341667,24.3045556 C25.3341667,24.6939444 25.3341667,33.4444444 25.3341667,33.4444444 L19.307,33.4444444 L19.307,16.7222222 L25.3341667,16.7222222 L25.3341667,19.0561667 C26.1105556,17.6945 27.6657222,16.7222222 30.5825556,16.7222222 C33.4993889,16.7222222 35.8333333,19.0561667 35.8333333,24.3045556 L35.8333333,33.4444444 Z" id="Shape" fill-rule="nonzero"></path>
                        <path d="M38.2222222,0 L4.77777778,0 C2.13805556,0 0,2.13805556 0,4.77777778 L0,38.2222222 C0,40.8619444 2.13805556,43 4.77777778,43 L38.2222222,43 C40.8619444,43 43,40.8619444 43,38.2222222 L43,4.77777778 C43,2.13805556 40.8619444,0 38.2222222,0 Z M38.2222222,38.2222222 L4.77777778,38.2222222 L4.77777778,4.77777778 L38.2222222,4.77777778 L38.2222222,38.2222222 Z" id="Shape" fill-rule="nonzero"></path>
                    </g>
                </g>
            </g>
        </g>
    </g>
</svg>