<?xml version="1.0" encoding="UTF-8"?>
<svg width="43px" height="43px" viewBox="0 0 43 43" version="1.1" xmlns="http://www.w3.org/2000/svg" xmlns:xlink="http://www.w3.org/1999/xlink">
    <!-- Generator: Sketch 53 (72520) - https://sketchapp.com -->
    <title>icons8-instagram_new</title>
    <desc>Created with Sketch.</desc>
    <g id="Page-1" stroke="none" stroke-width="1" fill="none" fill-rule="evenodd">
        <g id="Landing" transform="translate(-716.000000, -1488.000000)" fill="#23E5A3">
            <g id="Areas" transform="translate(0.000000, 1300.000000)">
                <g id="Insta" transform="translate(688.000000, 188.000000)">
                    <g id="icons8-instagram_new" transform="translate(28.000000, 0.000000)">
                        <g id="Group" opacity="0.3" transform="translate(2.388889, 2.388889)" fill-rule="nonzero">
                            <path d="M28.6666667,0 L9.55555556,0 C4.2785,0 0,4.2785 0,9.55555556 L0,28.6666667 C0,33.9437222 4.2785,38.2222222 9.55555556,38.2222222 L28.6666667,38.2222222 C33.9437222,38.2222222 38.2222222,33.9437222 38.2222222,28.6666667 L38.2222222,9.55555556 C38.2222222,4.2785 33.9437222,0 28.6666667,0 Z M19.1111111,28.6666667 C13.8340556,28.6666667 9.55555556,24.3881667 9.55555556,19.1111111 C9.55555556,13.8340556 13.8340556,9.55555556 19.1111111,9.55555556 C24.3881667,9.55555556 28.6666667,13.8340556 28.6666667,19.1111111 C28.6666667,24.3881667 24.3881667,28.6666667 19.1111111,28.6666667 Z" id="Shape"></path>
                        </g>
                        <path d="M31.0555556,0 L11.9444444,0 C5.35827778,0 0,5.35827778 0,11.9444444 L0,31.0555556 C0,37.6417222 5.35827778,43 11.9444444,43 L31.0555556,43 C37.6417222,43 43,37.6417222 43,31.0555556 L43,11.9444444 C43,5.35827778 37.6417222,0 31.0555556,0 Z M38.2222222,31.0555556 C38.2222222,35.0067778 35.0067778,38.2222222 31.0555556,38.2222222 L11.9444444,38.2222222 C7.99322222,38.2222222 4.77777778,35.0067778 4.77777778,31.0555556 L4.77777778,11.9444444 C4.77777778,7.99322222 7.99322222,4.77777778 11.9444444,4.77777778 L31.0555556,4.77777778 C35.0067778,4.77777778 38.2222222,7.99322222 38.2222222,11.9444444 L38.2222222,31.0555556 Z" id="Shape" fill-rule="nonzero"></path>
                        <path d="M21.5,9.55555556 C14.9138333,9.55555556 9.55555556,14.9138333 9.55555556,21.5 C9.55555556,28.0861667 14.9138333,33.4444444 21.5,33.4444444 C28.0861667,33.4444444 33.4444444,28.0861667 33.4444444,21.5 C33.4444444,14.9138333 28.0861667,9.55555556 21.5,9.55555556 Z M21.5,28.6666667 C17.5487778,28.6666667 14.3333333,25.4512222 14.3333333,21.5 C14.3333333,17.5487778 17.5487778,14.3333333 21.5,14.3333333 C25.4512222,14.3333333 28.6666667,17.5487778 28.6666667,21.5 C28.6666667,25.4512222 25.4512222,28.6666667 21.5,28.6666667 Z" id="Shape" fill-rule="nonzero"></path>
                        <circle id="Oval" cx="33.4444444" cy="9.55555556" r="2.38888889"></circle>
                    </g>
                </g>
            </g>
        </g>
    </g>
</svg>