<?xml version="1.0" encoding="UTF-8"?>
<svg width="48px" height="48px" viewBox="0 0 48 48" version="1.1" xmlns="http://www.w3.org/2000/svg" xmlns:xlink="http://www.w3.org/1999/xlink">
    <!-- Generator: Sketch 53 (72520) - https://sketchapp.com -->
    <title>icons8-quote</title>
    <desc>Created with Sketch.</desc>
    <g id="Page-1" stroke="none" stroke-width="1" fill="none" fill-rule="evenodd">
        <g id="Landing" transform="translate(-1011.000000, -1487.000000)" fill="#23E5A3">
            <g id="Areas" transform="translate(0.000000, 1300.000000)">
                <g id="Quora" transform="translate(999.000000, 187.000000)">
                    <g id="icons8-quote" transform="translate(12.000000, 0.000000)">
                        <rect id="Rectangle" opacity="0.3" x="2.4" y="2.4" width="43.2" height="33.6"></rect>
                        <g id="outlined_14_">
                            <path d="M43.1976,0 L4.7976,0 C2.1576,0 0.0216,2.16 0.0216,4.8 L0,33.5976 C0,36.2496 2.148,38.4 4.8,38.4 L9.5976,38.4 L43.1976,38.4 C45.8376,38.4 47.9976,36.24 47.9976,33.6 L47.9976,4.8 C47.9976,2.16 45.8376,0 43.1976,0 Z M43.2,33.6 L9.5976,33.6 L4.8,33.6 L4.7976,4.8 L43.2,4.8 L43.2,33.6 Z" id="Shape" fill-rule="nonzero"></path>
                            <polygon id="Path" points="21.5976 36 9.6 36 9.6 48"></polygon>
                        </g>
                        <rect id="Rectangle" x="12" y="12" width="9.6" height="9.6"></rect>
                        <rect id="Rectangle" x="26.4" y="12" width="9.6" height="9.6"></rect>
                        <polygon id="Path" points="16.8 21.6 12 28.8 16.8 28.8 21.6 21.6 21.6 19.2 16.8 19.2"></polygon>
                        <polygon id="Path" points="31.2 21.6 26.4 28.8 31.2 28.8 36 21.6 36 19.2 31.2 19.2"></polygon>
                    </g>
                </g>
            </g>
        </g>
    </g>
</svg>