<?xml version="1.0" encoding="UTF-8"?>
<svg width="19px" height="20px" viewBox="0 0 19 20" version="1.1" xmlns="http://www.w3.org/2000/svg" xmlns:xlink="http://www.w3.org/1999/xlink">
    <!-- Generator: Sketch 53 (72520) - https://sketchapp.com -->
    <title>insta</title>
    <desc>Created with Sketch.</desc>
    <g id="Page-1" stroke="none" stroke-width="1" fill="none" fill-rule="evenodd" opacity="0.300000012">
        <g id="Landing" transform="translate(-651.000000, -4409.000000)" fill="#FFFFFF" fill-rule="nonzero">
            <g id="Footer" transform="translate(-5.000000, 4224.000000)">
                <g id="Group-16" transform="translate(593.000000, 185.000000)">
                    <path d="M68.8398693,0.833333333 C66.1104493,0.833333333 63.8970588,3.1137963 63.8970588,5.92592593 L63.8970588,14.0740741 C63.8970588,16.8862037 66.1104493,19.1666667 68.8398693,19.1666667 L76.748366,19.1666667 C79.4777859,19.1666667 81.6911765,16.8862037 81.6911765,14.0740741 L81.6911765,5.92592593 C81.6911765,3.1137963 79.4777859,0.833333333 76.748366,0.833333333 L68.8398693,0.833333333 Z M78.7254902,2.87037037 C79.2711765,2.87037037 79.7140523,3.32666667 79.7140523,3.88888889 C79.7140523,4.45111111 79.2711765,4.90740741 78.7254902,4.90740741 C78.1798039,4.90740741 77.7369281,4.45111111 77.7369281,3.88888889 C77.7369281,3.32666667 78.1798039,2.87037037 78.7254902,2.87037037 Z M72.7941176,4.90740741 C75.5235376,4.90740741 77.7369281,7.18787037 77.7369281,10 C77.7369281,12.8121296 75.5235376,15.0925926 72.7941176,15.0925926 C70.0646977,15.0925926 67.8513072,12.8121296 67.8513072,10 C67.8513072,7.18787037 70.0646977,4.90740741 72.7941176,4.90740741 Z M72.7941176,6.94444444 C71.1562143,6.94444444 69.8284314,8.31246326 69.8284314,10 C69.8284314,11.6875367 71.1562143,13.0555556 72.7941176,13.0555556 C74.4320209,13.0555556 75.7598039,11.6875367 75.7598039,10 C75.7598039,8.31246326 74.4320209,6.94444444 72.7941176,6.94444444 Z" id="insta"></path>
                </g>
            </g>
        </g>
    </g>
</svg>