<?xml version="1.0" encoding="UTF-8"?>
<svg width="19px" height="20px" viewBox="0 0 19 20" version="1.1" xmlns="http://www.w3.org/2000/svg" xmlns:xlink="http://www.w3.org/1999/xlink">
    <!-- Generator: Sketch 53 (72520) - https://sketchapp.com -->
    <title>twitter</title>
    <desc>Created with Sketch.</desc>
    <g id="Page-1" stroke="none" stroke-width="1" fill="none" fill-rule="evenodd" opacity="0.300000012">
        <g id="Landing" transform="translate(-715.000000, -4409.000000)" fill="#FFFFFF" fill-rule="nonzero">
            <g id="Footer" transform="translate(-5.000000, 4224.000000)">
                <g id="Group-16" transform="translate(593.000000, 185.000000)">
                    <path d="M143.611111,0.833333333 L129.771242,0.833333333 C128.678881,0.833333333 127.794118,1.74490741 127.794118,2.87037037 L127.794118,17.1296296 C127.794118,18.2550926 128.678881,19.1666667 129.771242,19.1666667 L143.611111,19.1666667 C144.703472,19.1666667 145.588235,18.2550926 145.588235,17.1296296 L145.588235,2.87037037 C145.588235,1.74490741 144.703472,0.833333333 143.611111,0.833333333 Z M141.683415,7.46796296 C141.683415,7.55555556 141.683415,7.64212963 141.683415,7.81731481 C141.683415,11.1346296 139.22585,14.9764815 134.734812,14.9764815 C133.379493,14.9764815 132.108203,14.539537 131.006944,13.8418519 C131.175989,13.8418519 131.431038,13.8418519 131.600082,13.8418519 C132.70134,13.8418519 133.803587,13.4049074 134.650784,12.7937963 C133.549526,12.7937963 132.702328,12.0085185 132.363252,11.0480556 C132.532296,11.0480556 132.702328,11.1356481 132.787345,11.1356481 C133.041405,11.1356481 133.211438,11.1356481 133.465498,11.0480556 C132.36424,10.7862963 131.517042,9.82583333 131.517042,8.60361111 C131.856119,8.77777778 132.195196,8.86537037 132.618301,8.95296296 C131.940147,8.34185185 131.517042,7.64314815 131.517042,6.77027778 C131.517042,6.33333333 131.602059,5.89740741 131.856119,5.54805556 C133.042394,7.03203704 134.821806,8.08009259 136.855278,8.16666667 C136.855278,7.9925 136.770261,7.81731481 136.770261,7.55555556 C136.770261,6.15916667 137.87152,5.02351852 139.227827,5.02351852 C139.90598,5.02351852 140.583145,5.28527778 141.007239,5.8087963 C141.600376,5.7212037 142.108497,5.45944444 142.53259,5.19768519 C142.363546,5.8087963 141.939453,6.24574074 141.431332,6.59407407 C141.939453,6.50648148 142.363546,6.41990741 142.871667,6.15712963 C142.530613,6.68268519 142.107508,7.11861111 141.683415,7.46796296 Z" id="twitter"></path>
                </g>
            </g>
        </g>
    </g>
</svg>