<?xml version="1.0" encoding="UTF-8"?>
<svg width="19px" height="20px" viewBox="0 0 19 20" version="1.1" xmlns="http://www.w3.org/2000/svg" xmlns:xlink="http://www.w3.org/1999/xlink">
    <!-- Generator: Sketch 53 (72520) - https://sketchapp.com -->
    <title>youtube</title>
    <desc>Created with Sketch.</desc>
    <g id="Page-1" stroke="none" stroke-width="1" fill="none" fill-rule="evenodd" opacity="0.300000012">
        <g id="Landing" transform="translate(-779.000000, -4409.000000)" fill="#FFFFFF" fill-rule="nonzero">
            <g id="Footer" transform="translate(-5.000000, 4224.000000)">
                <g id="Group-16" transform="translate(593.000000, 185.000000)">
                    <path d="M194.340214,0 L195.801818,5.34375 L195.801818,7.90625 L197.068414,7.90625 L197.068414,5.34375 L198.549326,0 L197.273077,0 L196.742111,2.4316406 C196.592838,3.1416406 196.497921,3.6462656 196.454424,3.9472656 L196.415808,3.9472656 C196.353529,3.5262656 196.258611,3.017875 196.128121,2.421875 L195.616463,0 L194.340214,0 Z M200.026377,2.0175781 C199.597341,2.0175781 199.25156,2.1023906 198.987614,2.2753906 C198.723668,2.4473906 198.529076,2.7226094 198.404517,3.0996094 C198.280947,3.4766094 198.219162,3.9756563 198.219162,4.5976562 L198.219162,5.4375 C198.219162,6.0525 198.272606,6.5450156 198.381348,6.9160156 C198.490089,7.2870156 198.673607,7.5603281 198.931622,7.7363281 C199.189636,7.9123281 199.544654,8 199.997415,8 C200.438314,8 200.788806,7.9132344 201.045832,7.7402344 C201.302858,7.5672344 201.489155,7.295875 201.603829,6.921875 C201.718502,6.547875 201.775668,6.0535 201.775668,5.4375 L201.775668,4.5976562 C201.775668,3.9766562 201.717605,3.4794687 201.599967,3.1054688 C201.482328,2.7324687 201.295088,2.45725 201.040039,2.28125 C200.78499,2.10525 200.448493,2.0175781 200.026377,2.0175781 Z M202.445651,2.1308594 L202.445651,6.4453125 C202.445651,6.9793125 202.534112,7.3720469 202.71403,7.6230469 C202.893949,7.8740469 203.173372,8 203.551991,8 C204.097677,8 204.509057,7.7332188 204.781902,7.1992188 L204.808932,7.1992188 L204.920917,7.90625 L205.926857,7.90625 L205.926857,2.1308594 L204.642884,2.1308594 L204.642884,6.71875 C204.593457,6.82575 204.517863,6.9134219 204.415052,6.9824219 C204.312242,7.0524219 204.206249,7.0859375 204.094541,7.0859375 C203.964051,7.0859375 203.870926,7.031875 203.814578,6.921875 C203.75823,6.811875 203.729623,6.6271406 203.729623,6.3691406 L203.729623,2.1308594 L202.445651,2.1308594 Z M199.997415,2.9121094 C200.177334,2.9121094 200.304672,3.0072187 200.375849,3.1992188 C200.447025,3.3902187 200.482042,3.694375 200.482042,4.109375 L200.482042,5.9082031 C200.482042,6.3352031 200.447025,6.6440312 200.375849,6.8320312 C200.304672,7.0200312 200.178276,7.1142344 199.999346,7.1152344 C199.819428,7.1152344 199.694915,7.0200313 199.626704,6.8320312 C199.557505,6.6440313 199.524372,6.3352031 199.524372,5.9082031 L199.524372,4.109375 C199.524372,3.695375 199.559389,3.3912188 199.630566,3.1992188 C199.701742,3.0082187 199.823428,2.9121094 199.997415,2.9121094 Z M193.668301,9 C192.580882,9 191.691176,9.9 191.691176,11 L191.691176,18 C191.691176,19.1 192.580882,20 193.668301,20 L207.50817,20 C208.595588,20 209.485294,19.1 209.485294,18 L209.485294,11 C209.485294,9.9 208.595588,9 207.50817,9 L193.668301,9 Z M200.636505,11 L201.68106,11 L201.68106,13.568359 L201.688783,13.568359 C201.782696,13.382359 201.917388,13.233141 202.090386,13.119141 C202.263384,13.005141 202.450625,12.949219 202.650315,12.949219 C202.90734,12.949219 203.108343,13.01825 203.25465,13.15625 C203.400957,13.29425 203.507984,13.517219 203.573229,13.824219 C203.638474,14.132219 203.669768,14.559469 203.669769,15.105469 L203.669769,15.876953 L203.6717,15.876953 C203.6717,16.603953 203.584042,17.136516 203.411044,17.478516 C203.238045,17.820516 202.968801,17.992188 202.602044,17.992188 C202.397412,17.992188 202.212103,17.944609 202.044047,17.849609 C201.875992,17.754609 201.749642,17.623984 201.665614,17.458984 L201.642444,17.458984 L201.532389,17.919922 L200.636505,17.919922 L200.636505,11 Z M194.149066,11.246094 L197.363824,11.246094 L197.363824,12.130859 L196.286446,12.130859 L196.286446,17.919922 L195.226444,17.919922 L195.226444,12.130859 L194.149066,12.130859 L194.149066,11.246094 Z M205.627585,12.951172 C205.999284,12.951172 206.285164,13.020203 206.484854,13.158203 C206.683555,13.296203 206.823714,13.511734 206.905765,13.802734 C206.986827,14.094734 207.027405,14.497719 207.027405,15.011719 L207.027405,15.847656 L205.212466,15.847656 L205.212466,16.095703 C205.212466,16.408703 205.220714,16.642828 205.239497,16.798828 C205.25828,16.954828 205.296076,17.069625 205.353413,17.140625 C205.41075,17.212625 205.499258,17.248047 205.619862,17.248047 C205.781986,17.248047 205.893585,17.183641 205.953887,17.056641 C206.01419,16.929641 206.047415,16.718875 206.052358,16.421875 L206.988788,16.476562 C206.993731,16.518563 206.996512,16.578344 206.996512,16.652344 C206.996512,17.103344 206.873837,17.440109 206.629662,17.662109 C206.385488,17.885109 206.042534,17.996094 205.596692,17.996094 C205.06188,17.996094 204.686551,17.825328 204.471044,17.486328 C204.255538,17.147328 204.148603,16.623109 204.148603,15.912109 L204.148603,15.060547 C204.148603,14.328547 204.260203,13.794031 204.482629,13.457031 C204.705056,13.120031 205.08783,12.951172 205.627585,12.951172 Z M197.039452,13.044922 L198.126484,13.044922 L198.126484,16.625 C198.126484,16.842 198.150472,16.997844 198.197923,17.089844 C198.245374,17.182844 198.32276,17.228516 198.433479,17.228516 C198.527392,17.228516 198.619715,17.199625 198.705719,17.140625 C198.792713,17.082625 198.854359,17.007969 198.896867,16.917969 L198.896867,13.044922 L199.9839,13.044922 L199.9839,17.919922 L199.981969,17.919922 L199.132423,17.919922 L199.039746,17.322266 L199.014645,17.322266 C198.783322,17.774266 198.437541,18 197.975883,18 C197.655589,18 197.421454,17.893641 197.269215,17.681641 C197.116977,17.469641 197.039452,17.1375 197.039452,16.6875 L197.039452,13.044922 Z M205.604416,13.693359 C205.488754,13.693359 205.40298,13.728875 205.347621,13.796875 C205.292262,13.865875 205.25536,13.978766 205.237566,14.134766 C205.218784,14.290766 205.210535,14.527703 205.210535,14.845703 L205.210535,15.195312 L206.004089,15.195312 L206.004089,14.845703 C206.004089,14.532703 205.993956,14.296766 205.973196,14.134766 C205.953425,13.972766 205.914638,13.858969 205.859279,13.792969 C205.80392,13.726969 205.720078,13.693359 205.604416,13.693359 Z M202.161825,13.728516 C202.057038,13.728516 201.961178,13.770469 201.872207,13.855469 C201.783237,13.940469 201.719567,14.049641 201.682991,14.181641 L201.682991,16.949219 C201.730442,17.034219 201.792227,17.097625 201.868346,17.140625 C201.944465,17.182625 202.025527,17.205078 202.115487,17.205078 C202.231148,17.205078 202.321448,17.163125 202.389658,17.078125 C202.457869,16.993125 202.507729,16.850437 202.536398,16.648438 C202.565066,16.447437 202.578875,16.1675 202.578875,15.8125 L202.578875,15.185547 C202.578875,14.803547 202.567847,14.509734 202.544121,14.302734 C202.520396,14.095734 202.477933,13.946375 202.418619,13.859375 C202.358318,13.772375 202.272544,13.728516 202.161825,13.728516 Z" id="youtube"></path>
                </g>
            </g>
        </g>
    </g>
</svg>